<svg width="62" height="62" viewBox="0 0 62 62" fill="none" xmlns="http://www.w3.org/2000/svg">
<path d="M40.0417 36.1667H38.0008L37.2775 35.4692C39.8092 32.5242 41.3333 28.7008 41.3333 24.5417C41.3333 15.2675 33.8158 7.75 24.5417 7.75C15.2675 7.75 7.75 15.2675 7.75 24.5417C7.75 33.8158 15.2675 41.3333 24.5417 41.3333C28.7008 41.3333 32.5242 39.8092 35.4692 37.2775L36.1667 38.0008V40.0417L49.0833 52.9325L52.9325 49.0833L40.0417 36.1667ZM24.5417 36.1667C18.1092 36.1667 12.9167 30.9742 12.9167 24.5417C12.9167 18.1092 18.1092 12.9167 24.5417 12.9167C30.9742 12.9167 36.1667 18.1092 36.1667 24.5417C36.1667 30.9742 30.9742 36.1667 24.5417 36.1667Z" fill="black"/>
</svg>
